w<?xml version="1.0" standalone="no"?>
<!DOCTYPE svg PUBLIC "-//W3C//DTD SVG 20010904//EN"
 "http://www.w3.org/TR/2001/REC-SVG-20010904/DTD/svg10.dtd">
<svg version="1.0" xmlns="http://www.w3.org/2000/svg"
 width="512.000000pt" height="512.000000pt" viewBox="0 0 512.000000 512.000000"
 preserveAspectRatio="xMidYMid meet">
<metadata>
Created by potrace 1.15, written by Peter Selinger 2001-2017
</metadata>
<g transform="translate(0.000000,512.000000) scale(0.100000,-0.100000)"
fill="#000000" stroke="none">
<path d="M2470 4745 l0 -375 90 0 90 0 0 375 0 375 -90 0 -90 0 0 -375z"/>
<path d="M1708 4627 c-43 -16 -78 -36 -78 -42 0 -10 147 -374 154 -382 3 -3
121 44 148 58 14 8 6 32 -64 201 -44 106 -81 194 -81 194 -1 1 -37 -12 -79
-29z"/>
<path d="M3255 4471 c-43 -104 -78 -193 -78 -198 0 -8 153 -76 158 -71 7 9
155 374 155 383 0 7 -33 25 -72 41 -40 16 -75 30 -78 32 -4 1 -41 -83 -85
-187z"/>
<path d="M745 4370 l-60 -60 265 -265 265 -265 62 62 63 63 -262 262 c-145
145 -265 263 -268 263 -3 0 -32 -27 -65 -60z"/>
<path d="M4042 4167 l-262 -262 63 -63 62 -62 265 265 265 265 -60 60 c-33 33
-62 60 -65 60 -3 0 -123 -118 -268 -263z"/>
<path d="M2435 4210 c-664 -48 -1237 -497 -1447 -1134 -57 -176 -79 -317 -79
-516 0 -452 165 -854 481 -1170 316 -316 718 -481 1170 -481 452 0 854 165
1170 481 316 316 481 718 481 1170 0 452 -165 854 -481 1170 -342 341 -808
514 -1295 480z m419 -200 c392 -84 722 -308 943 -643 103 -157 172 -323 215
-518 32 -150 32 -428 0 -578 -87 -400 -309 -726 -645 -948 -157 -103 -323
-172 -518 -215 -150 -32 -428 -32 -578 0 -400 87 -726 309 -948 645 -103 157
-172 323 -215 518 -32 150 -32 428 0 578 87 399 309 726 645 948 181 119 368
191 596 228 123 20 375 13 505 -15z"/>
<path d="M492 3413 c-17 -42 -30 -78 -29 -79 1 -1 89 -38 195 -82 169 -70 193
-78 201 -64 14 27 61 145 58 148 -7 6 -373 154 -382 154 -6 0 -25 -35 -43 -77z"/>
<path d="M4390 3414 c-96 -40 -179 -75 -183 -76 -5 -2 43 -140 58 -165 1 -2
387 156 392 160 0 1 -13 37 -30 79 -21 50 -37 78 -47 77 -8 0 -94 -34 -190
-75z"/>
<path d="M0 2560 l0 -90 375 0 375 0 0 90 0 90 -375 0 -375 0 0 -90z"/>
<path d="M4370 2560 l0 -90 375 0 375 0 0 90 0 90 -375 0 -375 0 0 -90z"/>
<path d="M4261 1932 c-14 -27 -61 -145 -58 -148 8 -7 372 -154 382 -154 9 0
78 150 71 157 0 0 -88 37 -194 81 -169 70 -193 78 -201 64z"/>
<path d="M660 1869 c-91 -38 -173 -72 -182 -76 -15 -7 -13 -16 15 -85 18 -43
37 -78 43 -78 10 0 375 148 381 154 2 2 -11 37 -28 79 -22 53 -37 77 -48 76
-9 0 -90 -32 -181 -70z"/>
<path d="M950 1075 l-265 -265 63 -62 62 -63 265 265 265 265 -63 63 -62 62
-265 -265z"/>
<path d="M3841 1278 l-64 -60 267 -267 266 -266 62 63 63 62 -265 265 -265
264 -64 -61z"/>
<path d="M1707 733 c-43 -104 -77 -193 -77 -198 0 -9 150 -78 156 -72 1 1 38
89 82 195 l80 194 -31 13 c-18 7 -54 23 -80 34 -27 12 -50 21 -51 21 -1 0 -37
-84 -79 -187z"/>
<path d="M3248 886 l-77 -31 74 -180 c41 -99 78 -188 82 -197 7 -15 16 -13 85
15 43 18 78 37 78 42 0 16 -153 385 -159 384 -3 0 -41 -15 -83 -33z"/>
<path d="M2470 375 l0 -375 90 0 90 0 0 375 0 375 -90 0 -90 0 0 -375z"/>
</g>
</svg>
