<?xml version="1.0" standalone="no"?>
<!DOCTYPE svg PUBLIC "-//W3C//DTD SVG 20010904//EN"
 "http://www.w3.org/TR/2001/REC-SVG-20010904/DTD/svg10.dtd">
<svg version="1.0" xmlns="http://www.w3.org/2000/svg"
 width="512.000000pt" height="512.000000pt" viewBox="0 0 512.000000 512.000000"
 preserveAspectRatio="xMidYMid meet">
<metadata>
Created by potrace 1.15, written by Peter Selinger 2001-2017
</metadata>
<g transform="translate(0.000000,512.000000) scale(0.100000,-0.100000)"
fill="#000000" stroke="none">
<path d="M2250 5105 c-957 -121 -1768 -764 -2099 -1664 -50 -134 -104 -346
-126 -491 -22 -142 -31 -495 -16 -646 48 -480 232 -941 528 -1323 86 -111 333
-358 443 -443 377 -291 805 -468 1270 -524 157 -18 478 -18 632 2 464 59 888
235 1258 523 119 92 317 287 413 406 256 317 431 682 512 1068 56 262 73 600
36 682 -35 79 -112 121 -206 113 -79 -7 -115 -35 -197 -156 -48 -71 -112 -147
-192 -228 -220 -219 -450 -342 -766 -410 -120 -26 -430 -26 -550 -1 -217 46
-423 133 -583 248 -113 80 -256 223 -336 336 -73 102 -169 293 -205 408 -101
318 -97 651 9 972 110 330 343 601 670 777 39 21 81 48 94 59 77 70 64 216
-26 277 -36 25 -40 25 -247 27 -127 1 -253 -4 -316 -12z m460 -162 c0 -5 -29
-23 -64 -41 -337 -174 -613 -500 -735 -867 -72 -215 -85 -300 -85 -550 -1
-175 3 -240 18 -320 126 -670 620 -1181 1273 -1315 668 -138 1327 126 1718
688 67 96 99 115 111 66 10 -39 -4 -249 -26 -405 -111 -763 -610 -1441 -1315
-1785 -233 -113 -448 -180 -715 -221 -175 -27 -522 -24 -695 5 -520 89 -953
310 -1316 672 -610 608 -844 1462 -629 2296 150 580 535 1100 1051 1419 315
195 669 315 1044 354 103 11 365 13 365 4z"/>
<path d="M3460 5000 l0 -120 -125 0 -125 0 0 -90 0 -90 125 0 125 0 0 -125 0
-125 90 0 90 0 0 125 0 125 120 0 120 0 0 90 0 90 -120 0 -120 0 0 120 0 120
-90 0 -90 0 0 -120z m170 -210 l0 -80 -80 0 -80 0 0 80 0 80 80 0 80 0 0 -80z"/>
<path d="M2970 3970 l0 -80 -85 0 -85 0 0 -90 0 -90 85 0 85 0 0 -80 0 -80 85
0 85 0 0 80 0 80 85 0 85 0 0 90 0 90 -85 0 -85 0 0 80 0 80 -85 0 -85 0 0
-80z m160 -170 l0 -80 -75 0 -75 0 0 80 0 80 75 0 75 0 0 -80z"/>
<path d="M4120 3845 l0 -125 -125 0 -125 0 0 -85 0 -85 125 0 125 0 0 -125 0
-125 90 0 90 0 0 125 0 125 120 0 120 0 0 85 0 85 -120 0 -120 0 0 125 0 125
-90 0 -90 0 0 -125z m170 -210 l0 -75 -80 0 -80 0 0 75 0 75 80 0 80 0 0 -75z"/>
</g>
</svg>
