<?xml version="1.0" standalone="no"?>
<!DOCTYPE svg PUBLIC "-//W3C//DTD SVG 20010904//EN"
 "http://www.w3.org/TR/2001/REC-SVG-20010904/DTD/svg10.dtd">
<svg version="1.0" xmlns="http://www.w3.org/2000/svg"
 width="512.000000pt" height="512.000000pt" viewBox="0 0 512.000000 512.000000"
 preserveAspectRatio="xMidYMid meet">
<metadata>
Created by potrace 1.15, written by Peter Selinger 2001-2017
</metadata>
<g transform="translate(0.000000,512.000000) scale(0.100000,-0.100000)"
fill="#000000" stroke="none">
<path d="M2715 4123 c-377 -49 -722 -249 -951 -552 -68 -91 -171 -282 -200
-374 l-17 -55 -101 -5 c-56 -3 -127 -12 -158 -21 -138 -38 -292 -139 -382
-251 l-41 -51 -85 -12 c-353 -49 -650 -308 -751 -654 -30 -105 -37 -315 -14
-429 60 -299 268 -551 548 -664 173 -70 51 -66 1992 -63 l1750 3 80 23 c289
84 508 266 636 527 81 167 94 229 93 440 0 168 -2 186 -28 270 -30 98 -86 217
-137 292 -91 132 -263 275 -410 342 -69 31 -202 71 -237 71 -15 0 -23 8 -28
28 -61 284 -178 511 -364 706 -215 226 -481 367 -794 421 -81 14 -319 19 -401
8z m310 -174 c210 -25 383 -90 563 -211 198 -134 376 -361 456 -583 88 -243
100 -514 34 -754 -116 -424 -459 -761 -888 -871 -64 -16 -234 -40 -285 -40
-12 0 -15 -15 -15 -85 l0 -85 68 0 c79 0 209 21 307 48 389 109 710 375 888
737 86 175 131 349 143 558 l7 118 31 -7 c17 -3 63 -20 103 -36 320 -132 529
-459 509 -798 -22 -383 -297 -694 -676 -764 -77 -15 -265 -16 -1785 -13 -1907
3 -1733 -4 -1901 78 -187 92 -321 251 -385 459 -30 98 -33 281 -5 380 58 212
207 392 401 485 86 42 172 63 287 71 l88 7 24 42 c115 195 354 309 576 275 41
-6 82 -13 91 -16 12 -3 19 9 29 53 21 95 69 222 117 311 238 441 729 699 1218
641z"/>
</g>
</svg>
