<svg height="479pt" viewBox="-46 0 479 479.64312" width="479pt" xmlns="http://www.w3.org/2000/svg"><path d="m123.769531 198.417969c23.691407-15.582031 31.996094-46.417969 19.335938-71.789063l-61.242188-122.5625c-1.503906-2.519531-4.222656-4.066406-7.160156-4.066406-2.933594 0-5.65625 1.546875-7.160156 4.066406l-61.316407 122.570313c-12.683593 25.367187-4.375 56.214843 19.335938 71.78125 13.855469 11.296875 31.226562 17.390625 49.101562 17.226562 17.878907.164063 35.25-5.929687 49.105469-17.226562zm-93.503906-6.453125 4.34375-6.722656c-17.113281-11.0625-23.171875-33.222657-14.074219-51.453126l54.128906-108.257812 54.121094 108.246094c9.105469 18.234375 3.050782 40.398437-14.0625 51.464844l4.34375 6.722656-5.175781-6.105469c-11.039063 9.082031-24.933594 13.964844-39.226563 13.785156-14.285156.175781-28.167968-4.707031-39.199218-13.785156zm0 0"/><path d="m47.59375 144.484375-15.945312 1.328125c2.570312 21.402344 19.441406 38.277344 40.847656 40.847656l1.328125-15.9375c-13.613281-1.921875-24.3125-12.625-26.230469-26.238281zm0 0"/><path d="m384.863281 297.636719c-1.371093-4.292969-3.027343-8.488281-4.957031-12.5625l-41.816406-104.40625c-1.21875-3.03125-4.15625-5.019531-7.425782-5.019531-3.265624 0-6.207031 1.988281-7.421874 5.019531l-41.808594 104.40625c-1.929688 4.074219-3.589844 8.269531-4.960938 12.5625-1.230468 4.566406-1.835937 9.277343-1.808594 14.007812-.007812 4.78125.617188 9.546875 1.855469 14.167969 6.417969 24.625 28.648438 41.820312 54.097657 41.839844 25.453124.019531 47.710937-17.136719 54.167968-41.753906 1.253906-4.648438 1.886719-9.441407 1.878906-14.253907.03125-4.730469-.574218-9.441406-1.800781-14.007812zm-15.542969 24.152343c-4.59375 17.601563-20.507812 29.878907-38.703124 29.859376-18.195313-.019532-34.078126-12.332032-38.632813-29.949219-.878906-3.277344-1.324219-6.660157-1.320313-10.054688-.023437-3.132812.347657-6.257812 1.105469-9.296875l.0625-.222656v-.042969l38.832031-96.925781 38.808594 96.925781v.042969l.0625.222656c.765625 3.039063 1.144532 6.160156 1.128906 9.296875.003907 3.425781-.449218 6.835938-1.34375 10.144531zm0 0"/><path d="m315.167969 315.484375-15.488281 4c3.625 14.167969 16.363281 24.097656 30.984374 24.160156v-16c-7.328124-.058593-13.699218-5.054687-15.496093-12.160156zm0 0"/><path d="m162.160156 340.828125c-1.167968-3.132813-4.15625-5.207031-7.496094-5.207031-3.339843 0-6.328124 2.074218-7.496093 5.207031l-31.785157 84.800781c-4.59375 12.277344-2.875 26.03125 4.59375 36.808594 7.472657 10.773438 19.75 17.203125 32.863282 17.207031h3.648437c13.121094 0 25.40625-6.433593 32.882813-17.21875 7.472656-10.78125 9.179687-24.546875 4.574218-36.832031zm14.054688 112.488281c-4.445313 6.507813-11.839844 10.378906-19.726563 10.328125h-3.648437c-7.871094 0-15.238282-3.859375-19.722656-10.332031-4.484376-6.46875-5.511719-14.722656-2.75-22.09375l24.296874-64.785156 24.296876 64.800781c2.816406 7.359375 1.789062 15.636719-2.746094 22.082031zm0 0"/></svg>