<?xml version="1.0" standalone="no"?>
<!DOCTYPE svg PUBLIC "-//W3C//DTD SVG 20010904//EN"
 "http://www.w3.org/TR/2001/REC-SVG-20010904/DTD/svg10.dtd">
<svg version="1.0" xmlns="http://www.w3.org/2000/svg"
 width="512.000000pt" height="512.000000pt" viewBox="0 0 512.000000 512.000000"
 preserveAspectRatio="xMidYMid meet">
<metadata>
Created by potrace 1.15, written by Peter Selinger 2001-2017
</metadata>
<g transform="translate(0.000000,512.000000) scale(0.100000,-0.100000)"
fill="#000000" stroke="none">
<path d="M1915 4950 c-326 -51 -621 -275 -757 -575 l-32 -72 -80 -6 c-161 -12
-272 -62 -385 -174 -70 -70 -77 -74 -145 -88 -39 -8 -109 -33 -156 -56 -69
-34 -101 -58 -170 -128 -95 -96 -147 -186 -174 -301 -20 -85 -20 -249 -1 -325
32 -123 112 -258 193 -326 l39 -33 -62 -81 c-69 -91 -125 -201 -156 -308 -30
-104 -37 -315 -15 -428 60 -297 264 -544 546 -661 161 -67 23 -63 1965 -63
l1770 0 85 23 c108 29 266 106 350 170 171 130 299 320 362 537 20 71 23 101
22 260 0 168 -2 186 -28 270 -51 168 -123 290 -243 416 -128 134 -289 229
-462 273 -100 25 -111 31 -111 55 0 11 -11 59 -25 107 -72 250 -196 457 -380
633 -165 157 -367 274 -580 336 -101 29 -248 55 -315 55 -44 0 -46 1 -85 63
-22 34 -76 98 -120 143 -144 145 -294 228 -490 270 -87 19 -280 26 -360 14z
m380 -200 c147 -47 301 -147 387 -252 l37 -45 -92 -16 c-178 -32 -368 -109
-524 -213 -108 -72 -256 -213 -339 -323 -69 -92 -171 -283 -199 -373 l-18 -55
-106 -5 c-125 -6 -229 -37 -334 -99 -73 -44 -180 -138 -218 -193 -21 -30 -29
-35 -83 -40 -103 -12 -214 -47 -323 -102 l-105 -53 -61 63 c-167 169 -192 415
-62 611 85 128 213 200 387 220 55 6 58 8 88 55 99 154 273 221 462 176 l57
-13 26 86 c94 299 301 502 595 581 105 28 322 23 425 -10z m830 -485 c476 -98
844 -450 961 -920 32 -124 43 -332 25 -456 -57 -397 -296 -736 -651 -923 -153
-81 -306 -124 -502 -141 l-68 -7 0 -84 0 -84 61 0 c187 0 448 74 634 181 424
243 682 665 711 1162 4 64 10 117 14 117 21 0 123 -36 175 -62 449 -225 600
-782 324 -1190 -115 -170 -292 -293 -495 -345 -65 -17 -173 -18 -1794 -18
-1939 0 -1768 -7 -1936 76 -187 92 -321 251 -385 459 -30 98 -33 281 -5 380
58 212 208 393 401 485 90 43 171 64 284 72 l91 6 24 42 c85 144 240 248 413
275 62 10 213 1 256 -16 10 -3 17 11 27 53 126 568 651 977 1230 958 69 -2
161 -11 205 -20z"/>
<path d="M1313 1148 c-32 -42 -296 -494 -308 -529 -22 -62 -19 -177 6 -245 52
-139 199 -227 347 -210 194 23 324 200 293 397 -12 71 -17 81 -189 367 -101
169 -142 229 -149 220z m73 -435 c89 -149 97 -169 91 -226 -14 -153 -198 -200
-291 -74 -16 21 -21 43 -21 86 1 53 6 67 75 184 41 70 78 127 81 127 4 0 33
-44 65 -97z"/>
<path d="M1993 908 c-170 -284 -189 -332 -179 -437 17 -166 135 -288 298 -307
149 -17 295 73 349 215 28 76 24 204 -10 271 -23 45 -300 510 -304 510 -1 0
-70 -114 -154 -252z m228 -211 c78 -131 94 -180 79 -236 -20 -76 -76 -121
-150 -121 -61 0 -107 26 -137 77 -42 73 -32 122 56 271 41 67 76 122 80 122 3
0 36 -51 72 -113z"/>
<path d="M2832 928 c-189 -315 -185 -307 -190 -408 -3 -69 0 -95 17 -141 69
-183 278 -267 457 -185 146 67 225 244 179 402 -13 47 -228 425 -311 547 -10
16 -28 -9 -152 -215z m219 -240 c60 -101 74 -132 77 -175 8 -98 -60 -173 -158
-173 -104 0 -177 99 -149 203 11 41 138 266 150 267 4 0 39 -55 80 -122z"/>
<path d="M3648 912 c-177 -298 -167 -280 -178 -350 -32 -198 98 -375 292 -398
148 -17 295 71 347 210 25 68 28 183 6 245 -14 39 -285 502 -309 528 -8 9 -48
-51 -158 -235z m232 -229 c69 -117 74 -131 75 -184 0 -43 -5 -65 -21 -86 -72
-97 -195 -98 -267 -1 -29 39 -34 115 -10 164 29 60 135 234 142 234 3 0 40
-57 81 -127z"/>
</g>
</svg>
