<?xml version="1.0" standalone="no"?>
<!DOCTYPE svg PUBLIC "-//W3C//DTD SVG 20010904//EN"
 "http://www.w3.org/TR/2001/REC-SVG-20010904/DTD/svg10.dtd">
<svg version="1.0" xmlns="http://www.w3.org/2000/svg"
 width="32.000000pt" height="32.000000pt" viewBox="0 0 32.000000 32.000000"
 preserveAspectRatio="xMidYMid meet">
<metadata>
Created by potrace 1.15, written by Peter Selinger 2001-2017
</metadata>
<g transform="translate(0.000000,32.000000) scale(0.100000,-0.100000)"
fill="#000000" stroke="none">
<path d="M206 258 c-12 -17 -18 -19 -30 -9 -23 19 -60 10 -64 -16 -3 -18 -10
-23 -33 -23 -19 0 -29 -5 -29 -15 0 -12 13 -15 58 -15 32 0 63 5 69 11 8 8 17
7 32 -3 28 -17 54 -1 61 38 6 28 6 28 17 8 10 -17 9 -25 -3 -42 -14 -21 -23
-22 -150 -22 -112 0 -134 -2 -134 -15 0 -13 22 -15 140 -15 127 0 142 2 160
20 24 24 27 82 4 104 -23 24 -80 21 -98 -6z"/>
</g>
</svg>
