<?xml version="1.0" standalone="no"?>
<!DOCTYPE svg PUBLIC "-//W3C//DTD SVG 20010904//EN"
 "http://www.w3.org/TR/2001/REC-SVG-20010904/DTD/svg10.dtd">
<svg version="1.0" xmlns="http://www.w3.org/2000/svg"
 width="32.000000pt" height="32.000000pt" viewBox="0 0 32.000000 32.000000"
 preserveAspectRatio="xMidYMid meet">
<metadata>
Created by potrace 1.15, written by Peter Selinger 2001-2017
</metadata>
<g transform="translate(0.000000,32.000000) scale(0.100000,-0.100000)"
fill="#000000" stroke="none">
<path d="M140 267 c-22 -30 -40 -58 -40 -64 0 -14 -51 -24 -80 -16 -17 4 -21
2 -18 -8 4 -10 25 -14 86 -14 84 0 106 -8 52 -19 -38 -7 -40 -28 -2 -25 43 3
72 0 72 -9 0 -4 -31 -7 -70 -5 -39 1 -70 -2 -70 -7 0 -13 44 -23 73 -17 12 2
33 1 47 -3 32 -10 18 -12 -103 -13 -58 0 -86 -4 -84 -11 3 -10 23 -13 110 -15
18 -1 26 -5 21 -12 -10 -17 17 -29 70 -29 41 0 53 5 82 34 30 30 34 40 34 88
0 36 -7 64 -21 88 -39 64 -81 110 -100 110 -11 0 -35 -22 -59 -53z"/>
</g>
</svg>
