<?xml version="1.0" standalone="no"?>
<!DOCTYPE svg PUBLIC "-//W3C//DTD SVG 20010904//EN"
 "http://www.w3.org/TR/2001/REC-SVG-20010904/DTD/svg10.dtd">
<svg version="1.0" xmlns="http://www.w3.org/2000/svg"
 width="512.000000pt" height="512.000000pt" viewBox="0 0 512.000000 512.000000"
 preserveAspectRatio="xMidYMid meet">
<metadata>
Created by potrace 1.15, written by Peter Selinger 2001-2017
</metadata>
<g transform="translate(0.000000,512.000000) scale(0.100000,-0.100000)"
fill="#000000" stroke="none">
<path d="M1560 4420 l0 -210 90 0 90 0 0 210 0 210 -90 0 -90 0 0 -210z"/>
<path d="M1076 4350 c-38 -16 -70 -31 -72 -33 -5 -4 84 -219 94 -229 6 -5 149
45 160 56 6 7 -93 236 -103 236 -5 0 -41 -14 -79 -30z"/>
<path d="M2125 4348 c-7 -18 -29 -71 -48 -118 l-35 -84 80 -34 c44 -18 82 -32
83 -30 11 10 95 231 91 236 -8 7 -138 62 -149 62 -4 0 -14 -15 -22 -32z"/>
<path d="M475 4140 l-60 -60 145 -145 c80 -80 149 -145 155 -145 6 0 37 27 70
60 l60 60 -145 145 c-80 80 -149 145 -155 145 -6 0 -37 -27 -70 -60z"/>
<path d="M2607 4052 l-147 -147 58 -58 c32 -31 62 -57 67 -57 6 0 75 65 155
145 l145 145 -60 60 c-33 33 -62 60 -65 60 -3 0 -72 -66 -153 -148z"/>
<path d="M1465 4035 c-483 -91 -839 -477 -885 -961 -23 -242 37 -489 165 -683
l52 -81 -36 -5 c-124 -20 -301 -95 -395 -167 -146 -111 -262 -267 -317 -424
-66 -190 -66 -442 1 -620 118 -316 376 -531 706 -589 130 -23 3392 -23 3532 0
416 68 732 375 817 794 23 113 16 332 -14 445 -93 347 -370 618 -729 709 l-86
22 -9 45 c-17 94 -61 219 -112 325 -276 573 -906 887 -1533 766 l-92 -18 -42
54 c-88 114 -251 244 -377 300 -208 93 -446 125 -646 88z m341 -176 c115 -17
251 -72 354 -142 49 -34 190 -166 190 -178 0 -5 -37 -26 -82 -48 -313 -150
-577 -440 -692 -762 l-28 -76 -94 -7 c-176 -13 -337 -77 -451 -181 l-60 -54
-42 65 c-54 81 -95 172 -123 271 -30 106 -32 332 -4 438 104 390 420 655 821
688 49 4 131 -1 211 -14z m1290 -414 c447 -78 819 -400 964 -833 193 -579 -80
-1219 -637 -1491 -144 -70 -343 -121 -474 -121 l-59 0 0 -91 0 -91 83 7 c367
29 664 163 911 411 255 254 389 560 412 936 l7 116 51 -15 c217 -64 397 -214
503 -418 137 -264 118 -573 -51 -828 -80 -120 -231 -243 -367 -298 -152 -62
-56 -59 -1919 -59 -1911 0 -1769 -6 -1937 77 -156 76 -292 221 -357 382 -110
273 -49 577 159 787 139 140 294 212 481 221 l100 6 37 56 c74 114 182 201
305 243 72 25 216 31 318 15 l51 -9 7 35 c26 139 122 349 219 481 186 252 499
441 802 485 100 14 296 12 391 -4z"/>
<path d="M274 3548 c-16 -40 -30 -76 -32 -79 -4 -10 218 -101 233 -95 18 6 71
145 59 155 -11 9 -211 91 -223 91 -4 0 -21 -33 -37 -72z"/>
<path d="M0 2975 l0 -85 210 0 210 0 0 85 0 85 -210 0 -210 0 0 -85z"/>
<path d="M355 2533 c-60 -25 -111 -47 -113 -48 -5 -4 63 -165 69 -162 140 54
229 94 229 104 0 18 -57 147 -67 150 -4 1 -57 -19 -118 -44z"/>
</g>
</svg>
