<?xml version="1.0" standalone="no"?>
<!DOCTYPE svg PUBLIC "-//W3C//DTD SVG 20010904//EN"
 "http://www.w3.org/TR/2001/REC-SVG-20010904/DTD/svg10.dtd">
<svg version="1.0" xmlns="http://www.w3.org/2000/svg"
 width="512.000000pt" height="512.000000pt" viewBox="0 0 512.000000 512.000000"
 preserveAspectRatio="xMidYMid meet">
<metadata>
Created by potrace 1.15, written by Peter Selinger 2001-2017
</metadata>
<g transform="translate(0.000000,512.000000) scale(0.100000,-0.100000)"
fill="#000000" stroke="none">
<path d="M1425 4623 c-96 -8 -239 -38 -350 -74 -534 -174 -925 -613 -1047
-1174 -29 -134 -36 -416 -13 -559 34 -220 120 -441 243 -625 l60 -89 -55 -53
c-74 -73 -164 -210 -201 -305 -79 -206 -84 -459 -12 -650 114 -305 363 -519
680 -584 96 -20 136 -20 1782 -20 1813 0 1778 -1 1931 51 347 119 589 396 662
758 23 113 16 332 -13 443 -62 231 -217 443 -422 577 -98 65 -186 103 -310
135 l-84 21 -13 62 c-32 161 -121 362 -225 508 -434 613 -1280 775 -1913 367
-152 -98 -274 -215 -387 -373 l-55 -77 -51 39 c-113 87 -213 234 -268 394 -39
115 -45 292 -15 419 42 177 146 343 282 453 84 69 103 102 104 179 0 49 -5 68
-27 101 -48 74 -112 91 -283 76z m53 -256 c-170 -161 -255 -307 -304 -523 -28
-123 -24 -329 9 -457 59 -222 219 -453 396 -567 l24 -16 -29 -77 -29 -78 -96
-4 c-206 -10 -420 -116 -537 -267 -25 -32 -55 -60 -66 -62 -12 -2 -54 -9 -93
-15 -77 -12 -173 -41 -236 -73 -22 -11 -45 -17 -51 -15 -19 8 -101 136 -151
235 -103 206 -139 365 -139 607 1 240 34 392 133 601 137 288 364 516 653 657
174 85 360 132 533 135 l70 2 -87 -83z m1612 -922 c590 -96 1030 -615 1030
-1216 0 -599 -433 -1110 -1027 -1214 -47 -8 -112 -15 -144 -15 l-59 0 0 -91 0
-91 88 7 c362 29 660 164 906 411 255 254 389 560 412 936 l7 116 51 -15 c132
-39 252 -112 354 -214 278 -279 318 -700 98 -1032 -80 -120 -231 -243 -367
-298 -152 -62 -56 -59 -1919 -59 -1911 0 -1769 -6 -1937 77 -156 76 -292 221
-357 382 -110 273 -49 577 159 787 139 140 294 212 481 221 l100 6 37 56 c74
114 182 201 305 243 72 24 203 31 313 15 l57 -8 6 35 c26 138 122 348 219 480
186 252 499 441 802 485 98 14 283 12 385 -4z"/>
<path d="M2220 4545 l0 -85 -80 0 -80 0 0 -85 0 -85 80 0 79 0 3 -82 3 -83 88
-3 87 -3 0 86 0 85 80 0 80 0 0 85 0 85 -80 0 -80 0 0 85 0 85 -90 0 -90 0 0
-85z m170 -170 l0 -75 -80 0 -80 0 0 75 0 75 80 0 80 0 0 -75z"/>
<path d="M1890 3885 l0 -85 -80 0 -80 0 0 -85 0 -85 80 0 80 0 0 -85 0 -85 90
0 90 0 0 85 0 85 80 0 80 0 0 85 0 85 -80 0 -80 0 0 85 0 85 -90 0 -90 0 0
-85z m170 -170 l0 -75 -80 0 -80 0 0 75 0 75 80 0 80 0 0 -75z"/>
</g>
</svg>
