<?xml version="1.0" standalone="no"?>
<!DOCTYPE svg PUBLIC "-//W3C//DTD SVG 20010904//EN"
 "http://www.w3.org/TR/2001/REC-SVG-20010904/DTD/svg10.dtd">
<svg version="1.0" xmlns="http://www.w3.org/2000/svg"
 width="512.000000pt" height="512.000000pt" viewBox="0 0 512.000000 512.000000"
 preserveAspectRatio="xMidYMid meet">
<metadata>
Created by potrace 1.15, written by Peter Selinger 2001-2017
</metadata>
<g transform="translate(0.000000,512.000000) scale(0.100000,-0.100000)"
fill="#000000" stroke="none">
<path d="M655 4818 c-234 -267 -271 -314 -311 -393 -165 -333 -43 -739 273
-903 76 -39 177 -72 224 -72 52 0 54 -11 21 -111 -56 -169 -85 -326 -98 -527
l-6 -103 88 3 89 3 3 30 c12 141 102 268 232 329 83 39 199 48 282 21 152 -50
259 -178 282 -337 l7 -48 84 0 84 0 6 38 c13 78 33 131 69 185 44 67 93 107
173 145 51 24 70 27 158 27 92 0 106 -3 168 -32 120 -57 206 -170 227 -299 6
-35 10 -486 10 -1140 0 -1043 1 -1084 20 -1158 45 -178 170 -336 327 -414 45
-22 108 -46 139 -52 86 -18 255 -8 334 19 226 79 385 276 407 503 l6 68 -86 0
-86 0 -6 -47 c-25 -185 -146 -320 -330 -369 -226 -61 -468 88 -536 331 -12 42
-14 236 -14 1165 l0 1115 23 57 c104 257 417 340 632 166 23 -18 59 -59 80
-92 35 -54 44 -79 66 -193 4 -22 9 -23 88 -23 l84 0 7 47 c24 162 137 295 288
340 82 24 197 15 277 -23 120 -57 213 -182 229 -307 l6 -52 89 -3 89 -3 -7
103 c-35 517 -223 952 -570 1316 -337 352 -824 585 -1293 618 l-93 7 0 163 0
164 -85 0 -85 0 0 -164 0 -163 -82 -7 c-371 -31 -735 -164 -1022 -373 l-60
-43 -22 55 c-12 30 -38 78 -57 106 -41 61 -536 629 -548 629 -5 0 -128 -136
-274 -302z m470 -178 c248 -286 285 -353 285 -525 0 -280 -208 -496 -480 -496
-136 0 -244 45 -340 141 -95 95 -143 211 -143 345 0 101 17 179 57 251 27 49
413 505 426 503 3 0 91 -99 195 -219z m1314 -167 c-158 -164 -261 -297 -368
-476 -131 -219 -241 -509 -286 -757 -26 -145 -15 -137 -97 -75 -148 112 -314
146 -493 104 -49 -12 -130 -47 -167 -72 -37 -25 -37 -14 8 114 50 145 56 153
106 168 112 33 254 142 328 251 67 98 102 201 115 340 7 64 8 66 60 107 144
115 353 230 530 292 98 35 264 79 339 90 5 0 -28 -38 -75 -86z m472 1 c41 -35
119 -108 172 -163 262 -274 447 -606 542 -974 19 -76 35 -147 35 -159 0 -19
-1 -20 -22 -4 -50 36 -165 86 -236 102 -123 27 -263 6 -384 -58 -58 -31 -158
-119 -194 -171 l-19 -27 -43 55 c-50 64 -161 146 -236 174 -72 27 -200 44
-268 37 -93 -11 -213 -58 -285 -113 l-31 -24 19 88 c72 331 198 608 396 875
90 121 256 294 367 384 66 53 82 61 95 51 9 -6 50 -39 92 -73z m324 55 c287
-70 575 -218 788 -404 263 -230 450 -509 561 -839 34 -103 34 -113 -1 -89 -16
10 -50 29 -78 41 -201 87 -429 56 -597 -81 -64 -53 -60 -57 -79 58 -17 105
-65 283 -109 398 -125 335 -293 597 -554 865 -92 94 -96 91 69 51z"/>
<path d="M1090 4180 l0 -90 85 0 85 0 0 90 0 90 -85 0 -85 0 0 -90z"/>
<path d="M920 3855 l0 -85 90 0 90 0 0 85 0 85 -90 0 -90 0 0 -85z"/>
</g>
</svg>
