<?xml version="1.0" standalone="no"?>
<!DOCTYPE svg PUBLIC "-//W3C//DTD SVG 20010904//EN"
 "http://www.w3.org/TR/2001/REC-SVG-20010904/DTD/svg10.dtd">
<svg version="1.0" xmlns="http://www.w3.org/2000/svg"
 width="512.000000pt" height="512.000000pt" viewBox="0 0 512.000000 512.000000"
 preserveAspectRatio="xMidYMid meet">
<metadata>
Created by potrace 1.15, written by Peter Selinger 2001-2017
</metadata>
<g transform="translate(0.000000,512.000000) scale(0.100000,-0.100000)"
fill="#000000" stroke="none">
<path d="M1883 5025 c-315 -57 -591 -274 -723 -567 l-35 -78 -60 0 c-155 -1
-281 -55 -400 -172 -73 -71 -84 -79 -136 -88 -229 -42 -431 -220 -502 -445
-18 -59 -22 -93 -22 -210 0 -126 3 -147 27 -213 36 -100 82 -173 153 -246 l60
-62 -48 -59 c-67 -84 -131 -204 -163 -310 -26 -83 -28 -104 -28 -260 -1 -203
9 -248 89 -410 116 -234 324 -405 580 -477 l80 -23 1733 -3 c1722 -2 1733 -2
1835 19 357 72 637 320 751 663 38 116 49 203 43 356 -7 195 -53 339 -156 496
-139 211 -352 364 -590 423 -46 11 -86 23 -89 26 -3 2 -17 53 -33 112 -65 253
-183 457 -371 642 -235 231 -553 378 -861 398 l-88 6 -41 61 c-147 218 -386
373 -647 421 -99 18 -259 18 -358 0z m383 -185 c150 -38 293 -126 399 -243
l56 -61 -83 -14 c-295 -48 -612 -227 -808 -458 -121 -141 -222 -315 -265 -454
l-17 -56 -86 -2 c-110 -2 -226 -32 -327 -85 -62 -33 -103 -65 -183 -144 -75
-76 -109 -103 -128 -103 -87 0 -282 -63 -377 -121 -26 -16 -53 -29 -60 -29
-24 0 -123 108 -155 168 -46 87 -66 173 -58 257 11 130 47 212 131 304 88 94
189 143 325 157 69 6 70 7 94 48 34 58 116 132 179 161 83 39 146 48 230 34
125 -21 117 -24 142 61 45 156 113 268 229 378 124 117 286 197 451 222 79 11
223 2 311 -20z m790 -481 c248 -34 485 -149 672 -324 205 -193 331 -427 378
-702 33 -191 8 -441 -61 -623 -172 -451 -588 -765 -1057 -798 l-93 -7 -3 -87
-3 -88 44 0 c66 0 202 19 292 42 514 126 912 526 1035 1038 11 47 26 151 32
233 9 105 16 147 25 147 28 0 177 -61 235 -96 79 -48 199 -162 251 -238 100
-147 142 -286 141 -466 0 -147 -15 -212 -78 -345 -98 -206 -285 -369 -499
-434 -134 -41 -211 -42 -1922 -39 l-1640 3 -76 22 c-263 75 -465 276 -536 533
-27 100 -24 283 6 380 29 94 78 188 136 262 129 165 360 278 568 278 l64 0 36
59 c76 121 219 223 365 257 65 16 160 15 267 -2 l40 -6 24 89 c32 118 87 245
152 349 65 104 208 258 307 332 147 108 346 194 512 222 41 6 82 13 90 15 39
7 227 4 296 -6z"/>
<path d="M1480 985 c0 -52 -2 -95 -5 -95 -3 0 -49 22 -103 49 l-98 49 -37 -74
c-21 -42 -36 -78 -33 -82 2 -4 41 -25 85 -47 l82 -39 -86 -43 c-47 -24 -85
-48 -85 -53 0 -14 69 -150 75 -150 3 0 50 23 105 50 l100 50 0 -95 0 -95 90 0
90 0 0 95 0 95 101 -51 c56 -27 102 -49 104 -47 8 9 76 150 73 153 -2 1 -41
22 -88 45 l-85 43 88 43 c48 24 87 47 87 49 0 5 -70 147 -75 153 -2 2 -48 -20
-104 -47 l-101 -51 0 95 0 95 -90 0 -90 0 0 -95z"/>
<path d="M3460 985 l0 -95 -101 51 c-56 27 -102 49 -104 47 -5 -6 -75 -148
-75 -153 0 -2 39 -25 87 -49 l88 -43 -85 -43 c-47 -23 -86 -44 -88 -45 -3 -3
65 -144 73 -153 2 -2 48 20 104 47 l101 51 0 -95 0 -95 90 0 90 0 0 95 0 95
100 -50 c55 -27 102 -50 105 -50 6 0 75 136 75 150 0 5 -38 29 -85 53 l-86 43
82 39 c44 22 83 43 85 47 3 4 -12 40 -33 82 l-37 74 -98 -49 c-54 -27 -100
-49 -103 -49 -3 0 -5 43 -5 95 l0 95 -90 0 -90 0 0 -95z"/>
<path d="M2470 655 c0 -52 -2 -95 -5 -95 -3 0 -49 22 -103 49 l-98 49 -37 -74
c-20 -41 -37 -76 -37 -79 0 -3 39 -25 87 -49 l88 -44 -88 -43 c-48 -24 -87
-47 -87 -51 0 -12 69 -148 75 -148 3 0 50 23 105 50 l100 50 0 -95 0 -95 90 0
90 0 0 95 0 95 100 -50 c55 -27 102 -50 105 -50 6 0 75 136 75 148 0 4 -39 27
-87 51 l-88 43 88 44 c48 24 87 46 87 49 0 3 -17 38 -37 79 l-37 74 -98 -49
c-54 -27 -100 -49 -103 -49 -3 0 -5 43 -5 95 l0 95 -90 0 -90 0 0 -95z"/>
</g>
</svg>
