<?xml version="1.0" standalone="no"?>
<!DOCTYPE svg PUBLIC "-//W3C//DTD SVG 20010904//EN"
 "http://www.w3.org/TR/2001/REC-SVG-20010904/DTD/svg10.dtd">
<svg version="1.0" xmlns="http://www.w3.org/2000/svg"
 width="512.000000pt" height="512.000000pt" viewBox="0 0 512.000000 512.000000"
 preserveAspectRatio="xMidYMid meet">
<metadata>
Created by potrace 1.15, written by Peter Selinger 2001-2017
</metadata>
<g transform="translate(0.000000,512.000000) scale(0.100000,-0.100000)"
fill="#000000" stroke="none">
<path d="M2455 5101 c-47 -21 -99 -70 -122 -114 -9 -18 -18 -61 -21 -97 -3
-53 0 -76 18 -118 22 -52 71 -104 116 -124 20 -9 24 -19 24 -55 0 -23 -2 -43
-5 -43 -3 0 -84 52 -180 117 -96 64 -177 114 -179 112 -2 -2 -24 -35 -49 -73
l-46 -70 229 -153 230 -153 0 -100 0 -100 -181 121 c-99 66 -182 119 -183 117
-6 -7 -83 -124 -89 -134 -4 -7 84 -71 223 -164 l230 -153 0 -99 c0 -77 -3 -97
-12 -92 -7 4 -86 56 -175 116 -90 59 -167 108 -171 108 -5 0 -30 -31 -56 -70
l-46 -70 230 -152 229 -153 1 -240 0 -240 -195 195 c-107 107 -197 192 -199
189 -3 -3 25 -125 63 -272 38 -147 67 -267 65 -267 -4 0 -404 229 -413 237 -3
2 -13 125 -23 275 -9 149 -19 273 -22 275 -2 3 -41 1 -87 -3 l-82 -7 7 -116
c3 -64 9 -161 13 -215 l6 -99 -69 39 c-38 21 -77 44 -87 50 -16 9 -20 43 -36
282 -9 149 -19 273 -22 275 -2 2 -41 1 -86 -1 l-83 -4 1 -37 c0 -20 6 -117 13
-216 7 -99 12 -181 12 -182 -1 -2 -165 93 -171 99 -2 2 -12 127 -21 277 l-18
273 -83 -4 c-45 -2 -85 -7 -88 -9 -4 -5 8 -224 20 -366 l6 -63 -33 16 c-31 14
-33 18 -30 59 8 93 -54 197 -140 238 -99 47 -213 26 -290 -53 -52 -54 -68 -97
-68 -180 1 -182 185 -296 356 -221 51 22 52 22 82 4 l31 -19 -195 -97 -194
-97 37 -75 c21 -41 41 -75 45 -75 3 0 116 53 251 118 l243 119 74 -43 c40 -24
77 -47 81 -51 5 -5 -77 -51 -181 -103 -105 -52 -190 -96 -190 -97 0 -8 70
-153 74 -153 2 0 115 54 252 120 l247 120 81 -46 c45 -26 83 -48 85 -50 2 -1
-83 -46 -188 -98 -105 -53 -191 -101 -191 -106 0 -6 16 -42 35 -80 l35 -69
122 58 c68 32 179 86 246 120 68 34 129 61 136 59 6 -2 101 -54 210 -117 127
-74 193 -117 184 -121 -7 -4 -124 -38 -260 -76 -137 -37 -248 -71 -248 -74 0
-3 111 -37 248 -74 136 -38 253 -72 260 -76 9 -4 -57 -47 -184 -121 -109 -63
-204 -115 -210 -117 -7 -2 -68 25 -136 59 -67 34 -178 88 -246 120 l-122 58
-35 -69 c-19 -38 -35 -74 -35 -80 0 -5 86 -53 191 -106 105 -52 190 -97 188
-98 -2 -2 -40 -24 -85 -50 l-81 -46 -247 120 c-137 66 -250 120 -252 120 -4 0
-74 -145 -74 -153 0 -1 85 -45 190 -97 104 -52 186 -98 181 -103 -4 -4 -41
-27 -81 -51 l-74 -43 -243 119 c-135 65 -248 118 -251 118 -4 0 -24 -34 -45
-75 l-37 -75 194 -97 195 -97 -31 -19 c-30 -18 -31 -18 -82 4 -171 75 -355
-39 -356 -221 0 -83 16 -126 68 -180 77 -79 191 -100 290 -53 86 41 148 145
140 238 -3 41 -1 45 30 59 l33 16 -6 -57 c-11 -122 -25 -366 -20 -371 3 -3 43
-8 88 -10 l83 -4 12 203 c7 112 15 237 19 276 l6 73 51 29 c28 16 67 38 86 49
l35 21 -12 -177 c-6 -97 -12 -196 -12 -218 l-1 -42 83 -4 c45 -2 84 -3 86 -1
2 1 12 125 22 275 16 239 20 273 36 282 10 6 49 29 87 50 l69 39 -6 -94 c-4
-52 -10 -148 -13 -215 l-7 -121 82 -7 c46 -4 85 -6 87 -3 3 2 12 126 22 275
10 149 20 273 22 275 8 6 410 237 413 237 2 0 -27 -120 -64 -267 -38 -147 -66
-269 -63 -272 3 -3 92 82 199 189 l195 195 0 -240 -1 -240 -229 -153 -230
-152 46 -70 c26 -39 51 -70 56 -70 4 0 81 49 171 108 89 60 168 112 175 116 9
5 12 -15 12 -92 l0 -99 -230 -153 c-139 -93 -227 -157 -223 -164 6 -10 83
-127 89 -134 1 -2 84 51 183 117 l181 121 0 -100 0 -100 -230 -153 -229 -153
46 -70 c25 -38 47 -71 49 -73 2 -2 83 48 179 112 96 65 177 117 180 117 3 0 5
-20 5 -43 0 -36 -4 -46 -24 -55 -45 -20 -94 -72 -116 -124 -18 -42 -21 -65
-18 -118 6 -74 23 -113 70 -160 48 -49 102 -70 178 -70 76 0 130 21 178 70 47
47 64 86 70 160 3 53 0 76 -18 118 -22 52 -71 104 -116 124 -20 9 -24 19 -24
55 0 23 2 43 5 43 3 0 84 -52 180 -117 96 -64 177 -114 179 -112 2 2 24 35 49
73 l46 70 -229 153 -230 153 0 100 0 100 181 -121 c99 -66 182 -119 183 -117
6 7 83 124 89 134 4 7 -84 71 -223 164 l-230 153 0 99 c0 77 3 97 13 92 6 -4
85 -56 174 -116 90 -59 167 -108 171 -108 5 0 30 31 56 70 l46 70 -230 152
-229 153 -1 240 0 240 195 -195 c107 -107 197 -192 199 -189 3 3 -25 125 -63
272 -38 147 -67 267 -65 267 4 0 404 -229 413 -237 3 -2 13 -125 23 -275 9
-149 19 -273 22 -275 2 -3 41 -1 87 3 l82 7 -7 116 c-3 64 -9 161 -13 215 l-6
99 69 -39 c38 -21 77 -44 87 -50 16 -9 20 -43 36 -282 9 -149 19 -273 22 -275
2 -2 41 -1 87 1 l82 4 -1 37 c0 20 -6 117 -13 216 -7 99 -12 181 -12 182 1 2
165 -93 171 -99 2 -2 12 -127 21 -277 l18 -273 83 4 c45 2 85 7 88 9 4 5 -8
224 -20 366 l-6 63 33 -16 c31 -14 33 -18 30 -59 -8 -93 54 -197 140 -238 99
-47 213 -26 290 53 52 54 68 97 68 180 -1 182 -185 296 -356 221 -51 -22 -52
-22 -82 -4 l-31 19 195 97 194 97 -37 75 c-21 41 -41 75 -45 75 -3 0 -116 -53
-251 -118 l-243 -119 -74 43 c-40 24 -77 47 -81 51 -5 5 77 51 181 103 105 52
190 96 190 97 0 8 -70 153 -74 153 -2 0 -115 -54 -252 -120 l-247 -120 -81 46
c-45 26 -83 48 -85 50 -2 1 83 46 188 98 105 53 191 101 191 106 0 6 -16 42
-35 80 l-35 69 -122 -58 c-68 -32 -179 -86 -246 -120 -68 -34 -129 -61 -136
-59 -6 2 -101 54 -210 117 -127 74 -193 117 -184 121 7 4 124 38 261 76 136
37 247 71 247 74 0 3 -111 37 -247 74 -137 38 -254 72 -261 76 -9 4 57 47 184
121 109 63 204 115 210 117 7 2 68 -25 136 -59 67 -34 178 -88 246 -120 l122
-58 35 69 c19 38 35 74 35 80 0 5 -86 53 -191 106 -105 52 -190 97 -188 98 2
2 40 24 85 50 l81 46 247 -120 c137 -66 250 -120 252 -120 4 0 74 145 74 153
0 1 -85 45 -190 97 -104 52 -186 98 -181 103 4 4 41 27 81 51 l74 43 243 -119
c135 -65 248 -118 251 -118 4 0 24 34 45 75 l37 75 -194 97 -195 97 31 19 c30
18 31 18 82 -4 171 -75 355 39 356 221 0 83 -16 126 -68 180 -77 79 -191 100
-290 53 -86 -41 -148 -145 -140 -238 3 -41 1 -45 -30 -59 l-33 -16 6 63 c14
162 25 361 20 365 -3 3 -43 8 -88 10 l-83 4 -13 -213 c-8 -118 -16 -242 -20
-277 l-6 -62 -85 -49 c-46 -28 -85 -49 -85 -48 -1 1 4 83 11 182 7 99 13 196
13 216 l1 37 -82 4 c-46 2 -85 3 -87 1 -2 -1 -12 -125 -22 -275 -16 -238 -20
-273 -36 -282 -10 -6 -49 -29 -87 -50 l-69 -39 6 99 c4 54 10 151 13 215 l7
116 -82 7 c-46 4 -85 6 -87 3 -2 -2 -12 -126 -22 -275 -10 -149 -20 -273 -23
-275 -8 -7 -409 -237 -412 -237 -2 0 27 120 64 267 38 147 66 269 63 272 -2 3
-92 -82 -199 -189 l-195 -195 0 240 1 240 229 153 230 152 -46 70 c-26 39 -51
70 -56 70 -4 0 -81 -49 -171 -108 -89 -60 -168 -112 -174 -116 -10 -5 -13 15
-13 92 l0 99 230 153 c139 93 227 157 223 164 -6 10 -83 127 -89 134 -1 2 -84
-51 -183 -117 l-181 -121 0 100 0 100 230 153 229 153 -46 70 c-25 38 -47 71
-49 73 -2 2 -83 -48 -179 -112 -96 -65 -177 -117 -180 -117 -3 0 -5 20 -5 43
0 36 4 46 24 55 45 20 94 72 116 124 18 42 21 65 18 118 -6 74 -23 113 -70
160 -48 49 -102 70 -178 70 -42 0 -79 -7 -105 -19z m143 -167 c73 -51 24 -152
-63 -130 -33 8 -58 57 -46 89 11 28 47 57 71 57 9 0 26 -7 38 -16z m-1970
-1164 c29 -27 29 -76 0 -107 -36 -38 -89 -27 -116 24 -18 32 -15 51 13 78 30
31 73 32 103 5z m3967 -5 c28 -27 31 -46 13 -78 -39 -74 -138 -53 -138 29 0
68 77 98 125 49z m-1955 -1000 c44 44 80 76 80 72 0 -5 -12 -54 -26 -109 -17
-69 -22 -103 -14 -108 5 -3 51 -17 100 -29 50 -13 90 -27 90 -31 0 -4 -40 -18
-90 -31 -49 -12 -95 -26 -100 -29 -8 -5 -3 -39 14 -108 14 -55 26 -104 26
-109 0 -4 -36 28 -80 72 l-80 80 -80 -80 c-44 -44 -80 -76 -80 -72 0 5 12 54
26 109 17 69 22 103 14 108 -5 3 -51 17 -100 29 -50 13 -90 27 -90 31 0 4 40
18 90 31 49 12 95 26 100 29 8 5 3 39 -14 108 -14 55 -26 104 -26 109 0 4 36
-28 80 -72 l80 -80 80 80z m-2013 -1307 c48 -45 16 -128 -49 -128 -32 0 -78
39 -78 65 0 21 19 57 39 72 25 19 62 15 88 -9z m3954 9 c20 -15 39 -51 39 -72
0 -26 -46 -65 -78 -65 -39 0 -72 33 -72 72 0 60 67 99 111 65z m-1986 -1153
c8 -4 23 -20 31 -36 18 -36 3 -74 -38 -98 -25 -13 -31 -13 -55 0 -43 24 -57
62 -39 99 20 38 57 51 101 35z"/>
</g>
</svg>
