<?xml version="1.0" standalone="no"?>
<!DOCTYPE svg PUBLIC "-//W3C//DTD SVG 20010904//EN"
 "http://www.w3.org/TR/2001/REC-SVG-20010904/DTD/svg10.dtd">
<svg version="1.0" xmlns="http://www.w3.org/2000/svg"
 width="32.000000pt" height="32.000000pt" viewBox="0 0 32.000000 32.000000"
 preserveAspectRatio="xMidYMid meet">
<metadata>
Created by potrace 1.15, written by Peter Selinger 2001-2017
</metadata>
<g transform="translate(0.000000,32.000000) scale(0.100000,-0.100000)"
fill="#000000" stroke="none">
<path d="M122 303 c3 -42 -3 -61 -22 -66 -15 -4 -20 -14 -20 -37 0 -18 -9 -43
-20 -57 -15 -19 -20 -41 -20 -84 l0 -59 120 0 120 0 0 59 c0 43 -5 65 -20 84
-11 14 -20 39 -20 57 0 23 -5 33 -20 37 -11 3 -20 11 -20 18 0 8 -3 20 -6 29
-5 12 0 16 20 16 14 0 26 5 26 10 0 6 -27 10 -60 10 -51 0 -60 -3 -58 -17z"/>
</g>
</svg>
