<?xml version="1.0" standalone="no"?>
<!DOCTYPE svg PUBLIC "-//W3C//DTD SVG 20010904//EN"
 "http://www.w3.org/TR/2001/REC-SVG-20010904/DTD/svg10.dtd">
<svg version="1.0" xmlns="http://www.w3.org/2000/svg"
 width="512.000000pt" height="512.000000pt" viewBox="0 0 512.000000 512.000000"
 preserveAspectRatio="xMidYMid meet">
<metadata>
Created by potrace 1.15, written by Peter Selinger 2001-2017
</metadata>
<g transform="translate(0.000000,512.000000) scale(0.100000,-0.100000)"
fill="#000000" stroke="none">
<path d="M1885 4365 c-201 -37 -383 -134 -529 -283 -87 -88 -143 -169 -192
-277 l-39 -85 -60 0 c-149 -1 -284 -58 -397 -170 -75 -75 -79 -77 -162 -98
-207 -51 -364 -177 -448 -360 -46 -101 -61 -181 -56 -312 7 -181 62 -310 184
-435 l60 -62 -33 -39 c-123 -144 -213 -371 -213 -539 l0 -55 84 0 83 0 7 71
c36 361 332 643 698 666 l97 6 35 57 c74 119 215 218 366 256 64 16 137 16
261 -2 l45 -6 24 88 c30 116 85 243 151 352 74 119 262 307 381 381 422 259
923 254 1333 -13 284 -186 487 -501 542 -842 19 -116 8 -106 128 -119 83 -9
223 -57 309 -107 86 -50 236 -198 284 -280 41 -69 84 -173 103 -248 23 -89 18
-288 -9 -383 -82 -289 -303 -507 -597 -589 l-80 -23 -1957 -3 -1958 -2 0 -85
0 -85 1944 0 c2134 0 2024 -3 2198 60 237 86 436 265 548 495 82 166 95 229
94 440 0 167 -2 186 -28 270 -53 175 -130 303 -258 432 -123 125 -288 220
-457 262 -46 11 -86 23 -89 26 -3 2 -17 53 -33 113 -101 391 -366 716 -734
897 -176 87 -388 145 -532 145 l-52 0 -42 61 c-90 133 -237 262 -379 334 -181
92 -426 127 -625 90z m260 -165 c115 -14 181 -33 278 -80 94 -47 179 -111 246
-187 l51 -57 -67 -12 c-255 -43 -504 -162 -693 -329 -175 -156 -335 -392 -395
-587 l-18 -56 -81 -1 c-105 -1 -219 -30 -326 -83 -71 -35 -102 -59 -186 -144
-100 -101 -101 -101 -160 -108 -123 -15 -270 -66 -351 -120 -21 -14 -45 -26
-54 -26 -27 0 -121 101 -156 166 -48 89 -67 174 -59 259 12 130 46 211 126
298 88 96 196 149 332 163 66 6 68 7 92 48 34 58 117 133 179 161 81 37 159
46 257 29 46 -8 86 -11 90 -7 4 4 15 36 24 70 71 261 273 476 530 564 46 16
117 33 158 38 40 5 78 9 83 10 6 0 50 -4 100 -9z"/>
<path d="M2736 2545 c-198 -55 -363 -226 -411 -426 -10 -43 -15 -117 -15 -226
l0 -163 85 0 85 0 0 123 c0 222 29 317 127 415 59 60 133 98 223 114 161 30
348 -68 424 -223 121 -248 -38 -539 -316 -579 -35 -5 -487 -10 -1005 -10
l-943 0 0 -85 0 -85 978 0 c651 0 998 4 1038 11 208 37 399 220 449 430 19 82
19 209 0 284 -51 200 -217 367 -415 420 -68 18 -237 18 -304 0z"/>
<path d="M3976 2215 c-153 -42 -303 -166 -369 -305 -48 -103 -57 -155 -57
-345 l0 -165 84 0 84 0 4 168 c4 141 8 176 27 224 62 160 206 260 376 262 99
0 164 -20 243 -78 158 -117 208 -319 124 -499 -56 -120 -177 -208 -314 -227
-36 -6 -804 -10 -1790 -10 l-1728 0 0 -85 0 -85 1798 2 1797 3 66 26 c157 61
262 155 328 291 46 97 61 162 61 261 -1 264 -181 497 -435 562 -72 18 -231 18
-299 0z"/>
<path d="M660 1485 l0 -85 85 0 85 0 0 85 0 85 -85 0 -85 0 0 -85z"/>
<path d="M330 1155 l0 -85 85 0 85 0 0 85 0 85 -85 0 -85 0 0 -85z"/>
<path d="M0 825 l0 -85 85 0 85 0 0 85 0 85 -85 0 -85 0 0 -85z"/>
</g>
</svg>
